HIERARCHY
ROOT Hips
{
	OFFSET 0.000000 0.000000 0.000000 
	CHANNELS 6 Xposition Yposition Zposition Zrotation Yrotation Xrotation
	JOINT LeftUpLeg
	{
		OFFSET 1.363060 -1.794630 0.839290 
		CHANNELS 3 Zrotation Yrotation Xrotation
		JOINT LeftLeg
		{
			OFFSET 2.448110 -6.726130 0.000000 
			CHANNELS 3 Zrotation Yrotation Xrotation
			JOINT LeftFoot
			{
				OFFSET 2.562200 -7.039590 0.000000 
				CHANNELS 3 Zrotation Yrotation Xrotation
				JOINT LeftToeBase
				{
					OFFSET 0.157640 -0.433110 2.322550 
					CHANNELS 3 Zrotation Yrotation Xrotation
					End Site
					{
						OFFSET 0.000000 0.000000 0.000000 
					}
				}
			}
		}
	}
	JOINT RightUpLeg
	{
		OFFSET -1.305520 -1.794630 0.839290 
		CHANNELS 3 Zrotation Yrotation Xrotation
		JOINT RightLeg
		{
			OFFSET -2.542530 -6.985550 0.000000 
			CHANNELS 3 Zrotation Yrotation Xrotation
			JOINT RightFoot
			{
				OFFSET -2.568260 -7.056230 0.000000 
				CHANNELS 3 Zrotation Yrotation Xrotation
				JOINT RightToeBase
				{
					OFFSET -0.164730 -0.452590 2.363150 
					CHANNELS 3 Zrotation Yrotation Xrotation
					End Site
					{
						OFFSET 0.000000 0.000000 0.000000 
					}
				}
			}
		}
	}
	JOINT Spine
	{
		OFFSET 0.028270 2.035590 -0.193380 
		CHANNELS 3 Zrotation Yrotation Xrotation
		JOINT Spine1
		{
			OFFSET 0.056720 2.048850 -0.042750 
			CHANNELS 3 Zrotation Yrotation Xrotation
			JOINT Neck1
			{
				OFFSET -0.054170 1.746240 0.172020 
				CHANNELS 3 Zrotation Yrotation Xrotation
				JOINT Head
				{
					OFFSET 0.104070 1.761360 -0.123970 
					CHANNELS 3 Zrotation Yrotation Xrotation
					End Site
					{
						OFFSET 0.000000 0.000000 0.000000 
					}
				}
			}
			JOINT LeftArm
			{
				OFFSET 3.362410 1.200890 -0.311210 
				CHANNELS 3 Zrotation Yrotation Xrotation
				JOINT LeftForeArm
				{
					OFFSET 4.983000 -0.000000 -0.000000 
					CHANNELS 3 Zrotation Yrotation Xrotation
					JOINT LeftHand
					{
						OFFSET 3.483560 -0.000000 -0.000000 
						CHANNELS 3 Zrotation Yrotation Xrotation
						JOINT LeftHandIndex1
						{
							OFFSET 0.715260 -0.000000 -0.000000 
							CHANNELS 3 Zrotation Yrotation Xrotation
							End Site
							{
								OFFSET 0.000000 0.000000 0.000000 
							}
						}
					}
				}
			}
			JOINT RightArm
			{
				OFFSET -3.136600 1.374050 -0.404650 
				CHANNELS 3 Zrotation Yrotation Xrotation
				JOINT RightForeArm
				{
					OFFSET -5.241900 -0.000000 -0.000000 
					CHANNELS 3 Zrotation Yrotation Xrotation
					JOINT RightHand
					{
						OFFSET -3.444170 -0.000000 -0.000000 
						CHANNELS 3 Zrotation Yrotation Xrotation
						JOINT RightHandIndex1
						{
							OFFSET -0.622530 -0.000000 -0.000000 
							CHANNELS 3 Zrotation Yrotation Xrotation
							End Site
							{
								OFFSET 0.000000 0.000000 0.000000 
							}
						}
					}
				}
			}
		}
	}
}
MOTION
Frames: 15
Frame Time: 0.041667
-1.202943 17.941637 -5.067257 1.832443 -3.528180 9.046054 -8.867588 -12.177385 -15.135039 -0.164892 6.529762 20.224781 -3.038035 13.170986 -1.155292 1.248500 -7.084300 -19.965200 12.203227 11.566881 -23.334561 -1.767564 -9.775759 29.554804 -0.565491 1.643483 -3.928168 -0.029900 -1.116900 3.070500 3.106982 -0.538310 1.220009 4.618645 0.111380 0.813607 5.146928 -2.377862 21.762882 3.430700 -1.644200 13.610300 -76.793613 0.641496 26.632813 16.607482 -29.491591 -5.192433 0.204528 -1.583676 8.878641 -7.125000 0.000000 0.000000 69.938162 4.784362 18.276846 -14.529445 21.030527 -3.375341 0.627324 -0.714238 21.068097 7.125000 0.000000 0.000000 
-1.210180 17.942341 -5.060524 1.888825 -3.475604 8.983822 -8.943735 -12.023743 -15.190172 -0.149343 6.562703 20.317244 -3.013149 13.088328 -0.998175 1.259700 -7.115000 -20.056500 12.188926 11.581235 -23.263086 -1.780208 -9.792604 29.614710 -0.523185 1.418511 -3.923780 -0.036800 -1.237500 3.402400 3.159168 -0.562162 1.240209 4.720668 0.097349 0.808216 5.051546 -2.278263 21.783402 3.413800 -1.620500 13.578400 -76.614569 0.434768 26.980022 16.954270 -29.923262 -5.382500 0.198428 -1.577386 8.740889 -7.125000 0.000000 0.000000 69.770182 4.641311 18.216147 -14.338272 20.802988 -3.300315 0.634568 -0.716883 21.147607 7.125000 0.000000 0.000000 
-1.219024 17.943949 -5.054996 1.920126 -3.427851 8.960238 -8.958378 -11.906021 -15.310431 -0.120998 6.623753 20.483036 -2.983151 12.986991 -0.816328 1.294700 -7.209400 -20.337200 12.190191 11.667007 -23.171328 -1.783898 -9.791195 29.626474 -0.495210 1.258318 -3.993651 -0.050400 -1.448900 3.984800 3.234045 -0.599986 1.193353 4.859223 0.081384 0.687780 4.956164 -2.132755 21.831454 3.408600 -1.582400 13.538800 -76.558899 0.481551 27.152644 17.367236 -30.436520 -5.612483 0.192155 -1.570853 8.714057 -7.125000 0.000000 0.000000 69.534789 4.453744 18.306612 -14.104156 20.524825 -3.210483 0.641831 -0.727104 21.192898 7.125000 0.000000 0.000000 
-1.228371 17.945557 -5.046855 1.951195 -3.491570 8.946677 -9.000395 -11.618065 -15.475429 -0.086727 6.698562 20.690179 -2.940824 12.840069 -0.677935 1.355000 -7.368700 -20.812400 12.199364 11.751041 -23.099053 -1.784234 -9.784815 29.621543 -0.475168 1.171076 -3.927617 -0.066400 -1.663000 4.575300 3.280755 -0.575831 1.183821 4.960419 0.093882 0.668103 4.906328 -2.048781 21.897253 3.404400 -1.558400 13.523400 -76.461998 0.578636 27.344569 17.855305 -31.035782 -5.887225 0.194132 -1.568484 8.657179 -7.125000 0.000000 0.000000 69.324383 4.294250 18.196967 -13.822576 20.195376 -3.112120 0.619844 -0.778558 21.610895 7.125000 0.000000 0.000000 
-1.236110 17.946361 -5.039719 1.911878 -3.556028 8.898778 -8.973613 -11.343789 -15.588430 -0.049340 6.780688 20.923074 -2.888245 12.646701 -0.669990 1.381700 -7.438000 -21.019500 12.287298 11.872241 -22.967597 -1.780740 -9.768728 29.596846 -0.445344 1.034815 -3.869524 -0.093000 -1.966400 5.412900 3.302196 -0.532218 1.223106 4.963279 0.114243 0.708692 4.971957 -2.052708 21.956202 3.432900 -1.554300 13.528000 -76.246505 0.549583 27.591180 18.302699 -31.574726 -6.146288 0.194780 -1.561106 8.487356 -7.125000 0.000000 0.000000 69.254711 4.148929 18.021472 -13.593252 19.917775 -3.024601 0.601940 -0.785048 21.872272 7.125000 0.000000 0.000000 
-1.244050 17.950884 -5.034694 1.894162 -3.544053 8.848890 -8.931383 -11.226213 -15.678056 -0.011536 6.862164 21.157659 -2.826764 12.420650 -0.622904 1.368700 -7.404200 -20.918400 12.355523 11.947659 -22.853608 -1.775995 -9.752936 29.567412 -0.410552 0.864401 -3.836020 -0.115400 -2.190200 6.031700 3.342340 -0.499112 1.269283 5.027577 0.128066 0.742451 4.969512 -2.068381 22.045813 3.429300 -1.561700 13.570100 -76.104239 0.440726 27.753621 18.735605 -32.080536 -6.394960 0.197952 -1.558450 8.407716 -7.125000 0.000000 0.000000 69.166385 4.067712 17.895313 -13.396757 19.659983 -2.932967 0.613606 -0.713645 21.769190 7.125000 0.000000 0.000000 
-1.249779 17.952391 -5.026754 1.943336 -3.454821 8.825219 -8.951228 -11.131661 -15.832204 0.025480 6.941017 21.382302 -2.751112 12.150738 -0.398745 1.425000 -7.548600 -21.351100 12.343793 11.950148 -22.779935 -1.771952 -9.742368 29.542580 -0.380802 0.712980 -3.810746 -0.137100 -2.386100 6.574000 3.378968 -0.500510 1.320000 5.109879 0.123960 0.836337 4.882304 -2.043171 22.125302 3.394800 -1.560600 13.612400 -76.008121 0.248993 27.929510 19.124513 -32.522037 -6.615107 0.201994 -1.561367 8.363488 -7.125000 0.000000 0.000000 69.066818 4.029887 17.656760 -13.243800 19.460472 -2.865783 0.627242 -0.665634 21.914400 7.125000 0.000000 0.000000 
-1.256915 17.951185 -5.017608 1.966893 -3.364654 8.800261 -8.948391 -10.962374 -16.006557 0.061606 7.014945 21.583169 -2.683510 11.916031 -0.026993 1.504800 -7.747900 -21.950900 12.370865 11.957333 -22.700763 -1.769405 -9.733082 29.525861 -0.350586 0.550518 -3.841814 -0.149600 -2.492400 6.868500 3.444216 -0.524574 1.357620 5.231212 0.107821 0.937039 4.843814 -1.956682 22.211211 3.403600 -1.538400 13.625500 -75.946985 0.116617 28.121529 19.526789 -32.975795 -6.848845 0.188884 -1.554450 8.124476 -7.125000 0.000000 0.000000 68.904537 3.980115 17.440758 -13.078432 19.255055 -2.803237 0.631517 -0.656962 22.288761 7.125000 0.000000 0.000000 
-1.264955 17.950984 -5.010171 1.978608 -3.259460 8.729882 -8.935112 -10.794128 -16.143281 0.098094 7.090181 21.789641 -2.631800 11.737085 0.226047 1.619500 -8.024000 -22.786900 12.417274 12.047178 -22.535371 -1.764177 -9.715811 29.492519 -0.304291 0.286677 -3.985666 -0.151500 -2.508000 6.911700 3.494274 -0.553907 1.385503 5.326268 0.091543 0.976609 4.830860 -1.870316 22.230292 3.416500 -1.508500 13.593800 -75.837539 0.093121 28.293039 19.961255 -33.466291 -7.113827 0.171892 -1.535943 7.941035 -7.125000 0.000000 0.000000 68.795530 3.954087 17.172063 -12.866585 18.985606 -2.724447 0.635824 -0.655221 22.691445 7.125000 0.000000 0.000000 
-1.272593 17.955708 -5.000221 1.994412 -3.198366 8.680185 -8.937296 -10.612803 -16.269748 0.136940 7.171695 22.023654 -2.561402 11.482027 0.372779 1.673600 -8.150400 -23.171700 12.448153 12.102458 -22.380419 -1.750617 -9.687004 29.419542 -0.274381 0.112081 -4.104423 -0.153900 -2.527900 6.967000 3.513451 -0.571984 1.400641 5.354429 0.081970 1.003483 4.855480 -1.833024 22.240755 3.441300 -1.496400 13.568900 -75.716366 0.036851 28.322673 20.306862 -33.846764 -7.321046 0.165729 -1.530917 7.865548 -7.125000 0.000000 0.000000 68.764008 3.876789 16.943318 -12.720764 18.800783 -2.671182 0.640995 -0.653907 22.963508 7.125000 0.000000 0.000000 
-1.280031 17.967266 -4.990070 2.017867 -3.132959 8.646111 -8.948451 -10.409847 -16.416038 0.179096 7.257449 22.270467 -2.464575 11.134831 0.688063 1.752500 -8.330400 -23.722200 12.463431 12.170605 -22.214593 -1.731693 -9.648968 29.317545 -0.241638 -0.067499 -4.177232 -0.147700 -2.476500 6.824400 3.546106 -0.618602 1.400137 5.419390 0.058680 1.006699 4.860196 -1.789063 22.324978 3.461400 -1.486400 13.590200 -75.652102 0.056633 28.338229 20.705748 -34.278974 -7.554371 0.152408 -1.532521 7.618467 -7.125000 0.000000 0.000000 68.744755 3.791338 16.626434 -12.599066 18.646377 -2.628307 0.644668 -0.657316 23.336873 7.125000 0.000000 0.000000 
-1.285458 17.977015 -4.979416 1.966523 -3.054676 8.623609 -8.845134 -10.339909 -16.578864 0.226577 7.354104 22.538310 -2.395935 10.889354 0.934252 1.826800 -8.495500 -24.229400 12.556124 12.221759 -22.048223 -1.703955 -9.595051 29.172578 -0.210460 -0.238431 -4.266517 -0.157100 -2.553900 7.039100 3.591327 -0.644592 1.398719 5.454165 0.048217 1.022150 4.795466 -1.739651 22.467891 3.442700 -1.476500 13.638900 -75.589714 0.046965 28.427475 21.071830 -34.673385 -7.784063 0.113200 -1.504444 7.336721 -7.125000 0.000000 0.000000 68.726441 3.698043 16.291553 -12.478439 18.493790 -2.587255 0.652417 -0.664573 23.675405 7.125000 0.000000 0.000000 
-1.289880 17.979728 -4.968059 1.975617 -2.962071 8.604496 -8.763891 -10.441039 -16.691484 0.275359 7.451447 22.818804 -2.328927 10.646506 1.125980 1.796500 -8.428700 -24.024000 12.596505 12.197492 -21.906222 -1.666649 -9.531078 28.981859 -0.159016 -0.517226 -4.357777 -0.148700 -2.484800 6.847600 3.638989 -0.690350 1.403289 5.537904 0.025778 1.067691 4.660418 -1.623354 22.517861 3.400900 -1.444100 13.624700 -75.555260 -0.073259 28.446299 21.307456 -34.921958 -7.940449 0.086025 -1.473154 7.079848 -7.125000 0.000000 0.000000 68.659852 3.658889 16.077056 -12.354218 18.333846 -2.543790 0.666889 -0.665180 23.853668 7.125000 0.000000 0.000000 
-1.294604 17.982342 -4.957707 1.978769 -2.866225 8.511857 -8.676296 -10.572159 -16.722166 0.327145 7.549592 23.107479 -2.240740 10.329584 1.476373 1.693300 -8.195700 -23.310000 12.647517 12.192242 -21.637192 -1.623244 -9.452863 28.757903 -0.122191 -0.726280 -4.494451 -0.148400 -2.482800 6.842000 3.677015 -0.714330 1.419555 5.588436 0.014693 1.069706 4.566881 -1.549895 22.524002 3.376200 -1.428100 13.588300 -75.539521 -0.161801 28.453728 21.573355 -35.195969 -8.103901 0.093471 -1.472757 6.848102 -7.125000 0.000000 0.000000 68.596855 3.609332 15.888803 -12.256354 18.204524 -2.509074 0.694794 -0.656335 23.908314 7.125000 0.000000 0.000000 
-1.299931 17.994000 -4.948059 2.013258 -2.753238 8.384733 -8.595215 -10.743676 -16.773041 0.375123 7.641917 23.375491 -2.152389 10.014488 1.849390 1.574900 -7.918100 -22.465500 12.668131 12.166365 -21.330923 -1.582616 -9.377157 28.544298 -0.092461 -0.890894 -4.586371 -0.145900 -2.461500 6.783000 3.698375 -0.720565 1.468316 5.636840 0.010730 1.105010 4.480452 -1.522335 22.578794 3.340200 -1.425100 13.601200 -75.483457 -0.225483 28.625128 21.871528 -35.505105 -8.295708 0.067287 -1.446501 6.477711 -7.125000 0.000000 0.000000 68.585826 3.547604 15.609670 -12.206351 18.137790 -2.493781 0.722972 -0.656299 23.939717 7.125000 0.000000 0.000000 
